<svg xmlns="http://www.w3.org/2000/svg" xmlns:xlink="http://www.w3.org/1999/xlink" width="84" height="84" viewBox="0 0 84 84"><defs><style>.a{fill:none;}.b,.c{stroke:none;}.c{fill:gray;}.d{filter:url(#a);}</style><filter id="a" x="0" y="0" width="84" height="84" filterUnits="userSpaceOnUse"><feOffset dx="1" dy="1" input="SourceAlpha"/><feGaussianBlur stdDeviation="1.5" result="b"/><feFlood/><feComposite operator="in" in2="b"/><feComposite in="SourceGraphic"/></filter></defs><g class="d" transform="matrix(1, 0, 0, 1, 0, 0)"><g class="a" transform="translate(3.5 3.5)"><path class="b" d="M68.626,75H6.455l.027-.027L0,68.491V6.455L6.456,0h62.17L75,6.375v62.2l-6.4,6.4.026.026Z"/><path class="c" d="M 66.50076293945312 69.99997711181641 L 70 66.50084686279297 L 70 8.44598388671875 L 66.55415344238281 5 L 8.52670955657959 5 L 5 8.526491165161133 L 5 66.42032623291016 L 8.579119682312012 69.99940490722656 L 66.50076293945312 69.99997711181641 M 68.62565612792969 75 L 6.45482873916626 74.99938201904297 L 6.481371402740479 74.97271728515625 L 0 68.49141693115234 L 0 6.455328464508057 L 6.455728530883789 0 L 68.62527465820312 0 L 75 6.374985694885254 L 75 68.57196044921875 L 68.59871673583984 74.97306060791016 L 68.62506866455078 74.99939727783203 L 68.62565612792969 75 Z"/></g></g></svg>