<svg xmlns="http://www.w3.org/2000/svg" xmlns:xlink="http://www.w3.org/1999/xlink" width="1648.108" height="2176.491" viewBox="0 0 1648.108 2176.491"><defs><style>.a{fill:url(#a);}.b{fill:url(#d);}.c{fill:url(#aq);}.d{filter:url(#ar);}.e{filter:url(#ao);}.f{filter:url(#al);}.g{filter:url(#ai);}.h{filter:url(#af);}.i{filter:url(#ac);}.j{filter:url(#z);}.k{filter:url(#w);}.l{filter:url(#t);}.m{filter:url(#q);}.n{filter:url(#n);}.o{filter:url(#k);}.p{filter:url(#h);}.q{filter:url(#e);}.r{filter:url(#b);}</style><radialGradient id="a" cx="0.5" cy="0.5" r="0.5" gradientTransform="matrix(1, 0, 0, -1, 0, 1)" gradientUnits="objectBoundingBox"><stop offset="0" stop-color="#fff"/><stop offset="1" stop-color="gray"/></radialGradient><filter id="b" x="0.079" y="1300.602" width="71.028" height="509" filterUnits="userSpaceOnUse"><feOffset dx="1" dy="1" input="SourceAlpha"/><feGaussianBlur stdDeviation="1.5" result="c"/><feFlood/><feComposite operator="in" in2="c"/><feComposite in="SourceGraphic"/></filter><radialGradient id="d" gradientTransform="matrix(1, 0, 0, 1, 0, 0)" xlink:href="#a"/><filter id="e" x="1.079" y="1800.602" width="70.015" height="308.001" filterUnits="userSpaceOnUse"><feOffset dx="1" dy="1" input="SourceAlpha"/><feGaussianBlur stdDeviation="1.5" result="f"/><feFlood/><feComposite operator="in" in2="f"/><feComposite in="SourceGraphic"/></filter><filter id="h" x="1577.079" y="0" width="71.028" height="728.602" filterUnits="userSpaceOnUse"><feOffset dx="1" dy="1" input="SourceAlpha"/><feGaussianBlur stdDeviation="1.5" result="i"/><feFlood/><feComposite operator="in" in2="i"/><feComposite in="SourceGraphic"/></filter><filter id="k" x="0.079" y="1194.602" width="64.015" height="114" filterUnits="userSpaceOnUse"><feOffset dx="1" dy="1" input="SourceAlpha"/><feGaussianBlur stdDeviation="1.5" result="l"/><feFlood/><feComposite operator="in" in2="l"/><feComposite in="SourceGraphic"/></filter><filter id="n" x="1044.093" y="1088.587" width="509.001" height="71.028" filterUnits="userSpaceOnUse"><feOffset dx="1" dy="1" input="SourceAlpha"/><feGaussianBlur stdDeviation="1.5" result="o"/><feFlood/><feComposite operator="in" in2="o"/><feComposite in="SourceGraphic"/></filter><filter id="q" x="1544.439" y="719.601" width="103.669" height="396.263" filterUnits="userSpaceOnUse"><feOffset dx="1" dy="1" input="SourceAlpha"/><feGaussianBlur stdDeviation="1.5" result="r"/><feFlood/><feComposite operator="in" in2="r"/><feComposite in="SourceGraphic"/></filter><filter id="t" x="544.093" y="1088.587" width="509" height="71.028" filterUnits="userSpaceOnUse"><feOffset dy="1" input="SourceAlpha"/><feGaussianBlur stdDeviation="1.5" result="u"/><feFlood/><feComposite operator="in" in2="u"/><feComposite in="SourceGraphic"/></filter><filter id="w" x="106.092" y="1088.602" width="447" height="71.014" filterUnits="userSpaceOnUse"><feOffset dy="1" input="SourceAlpha"/><feGaussianBlur stdDeviation="1.5" result="x"/><feFlood/><feComposite operator="in" in2="x"/><feComposite in="SourceGraphic"/></filter><filter id="z" x="1539.3" y="1070.841" width="99.793" height="81.766" filterUnits="userSpaceOnUse"><feOffset dx="1" dy="1" input="SourceAlpha"/><feGaussianBlur stdDeviation="1.5" result="aa"/><feFlood/><feComposite operator="in" in2="aa"/><feComposite in="SourceGraphic"/></filter><filter id="ac" x="1541.3" y="1074.364" width="67.663" height="70.738" filterUnits="userSpaceOnUse"><feOffset dx="1" dy="1" input="SourceAlpha"/><feGaussianBlur stdDeviation="1.5" result="ad"/><feFlood/><feComposite operator="in" in2="ad"/><feComposite in="SourceGraphic"/></filter><filter id="af" x="1540.439" y="1083.699" width="60.654" height="53.903" filterUnits="userSpaceOnUse"><feOffset dx="1" dy="1" input="SourceAlpha"/><feGaussianBlur stdDeviation="1.5" result="ag"/><feFlood/><feComposite operator="in" in2="ag"/><feComposite in="SourceGraphic"/></filter><filter id="ai" x="1540.439" y="1067.699" width="55.654" height="57.903" filterUnits="userSpaceOnUse"><feOffset dx="1" dy="1" input="SourceAlpha"/><feGaussianBlur stdDeviation="1.5" result="aj"/><feFlood/><feComposite operator="in" in2="aj"/><feComposite in="SourceGraphic"/></filter><filter id="al" x="1538.309" y="1057.203" width="49.981" height="50.397" filterUnits="userSpaceOnUse"><feOffset dx="1" dy="1" input="SourceAlpha"/><feGaussianBlur stdDeviation="1.5" result="am"/><feFlood/><feComposite operator="in" in2="am"/><feComposite in="SourceGraphic"/></filter><filter id="ao" x="0" y="1088.667" width="116.242" height="115.64" filterUnits="userSpaceOnUse"><feOffset dx="1" dy="1" input="SourceAlpha"/><feGaussianBlur stdDeviation="1.5" result="ap"/><feFlood/><feComposite operator="in" in2="ap"/><feComposite in="SourceGraphic"/></filter><radialGradient id="aq" cx="0.548" cy="0.076" gradientTransform="matrix(1, 0, 0, 1, 0, 0)" xlink:href="#a"/><filter id="ar" x="1487.093" y="2077.601" width="64.003" height="98.891" filterUnits="userSpaceOnUse"><feOffset dx="1" dy="1" input="SourceAlpha"/><feGaussianBlur stdDeviation="1.5" result="as"/><feFlood/><feComposite operator="in" in2="as"/><feComposite in="SourceGraphic"/></filter></defs><g transform="translate(-136.407 -3016.898)"><g class="r" transform="matrix(1, 0, 0, 1, 136.41, 3016.9)"><path class="a" d="M53.013,0V141h0v28.77l.042.116,5.958,16.37V213H59.1l-.087.24v0L53.642,228l-.32.879-.322.885.013,0V279h3V230.254l5.557-15.267.443-1.216v-.945h0V188.961h0v-3.193l.013,0-6.014-16.52L55.926,169h.089V139h0V0Zm-8,0V17.417a5,5,0,1,0,3-.316V0Zm0,22a2,2,0,1,1,2,2A2,2,0,0,1,45.013,22Zm-7-22V30.769l.042.116,5.958,16.37V74H44.1l-.087.24v0L38.642,89l-.32.879L38,90.763l.013,0v78.463l-.013.006.322.885.32.879,5.372,14.758v0l.087.24h-.087v22h3V186.175h0v-.945l-.437-1.2-5.564-15.285V123h0V91.253l5.556-15.267.445-1.216v-.945h0V49.96h0V46.767l.013,0-6.014-16.52L40.926,30h.089V0Zm-20,0V29.382L12.141,45.518l-.127.351v.945h0V70.677h0V73.87l-.013,0,.013.037.043.123,3.364,9.238,2.818-1.028-3.224-8.862V46.638h-.088L20.982,30h.032v-.088l.014-.038-.014,0V0Zm-6,0V29.382L6.14,45.518l-.127.351v.945h0V70.677h0V73.87l-.013,0,.013.037.041.111,6.1,16.767,2.82-1.026L9.014,73.383V46.638H8.927L14.982,30h.031v-.088l.014-.038-.014,0V0Zm-6,0V30h3V0Zm-6,0V74.77l.042.116,5.958,16.37V118H6.1l-.087.24v0L.642,133l-.32.879L0,134.764l.013.006V167h3V135.253l5.557-15.267.444-1.216v-.945h0V93.96h0V90.768l.013-.006L3.014,74.242,2.925,74h.089V0Zm28,9V162.375h0v3.1l1.43.383,2.57.69V181.79L27.8,185.329a5.007,5.007,0,1,0,2.386,1.914l4.376-3.671,0,0h.006l.452-.379V167.357h0V164.25L34.083,164v0l-3.07-.823V9Zm-4,181a2,2,0,1,1,2,2A2,2,0,0,1,24.014,190Zm-6-149V59.375h0v3.106l1.43.383,2.57.69V76h3V64.357h0V61.251L24.083,61v0l-3.07-.823V41Zm24,60a5.009,5.009,0,0,0,3,4.582V123h0v46.231l-.013.006.322.885.32.879,5.372,14.758v0l.088.24h-.088v28H53.75l.265-.727V210.04h0V186.175h0v-.945l-.437-1.2-5.564-15.285V105.9a5,5,0,1,0-6-4.9Zm3,0a2,2,0,1,1,2,2A2,2,0,0,1,45.013,101Zm-34,10a5.008,5.008,0,0,0,3,4.582v10.406h0v3.827l-.044.053,1.4,1.177,1.644,1.38,4,3.355V165h0v13l-.859.179h0l-1.285.267-3.857.8v49.383l-3.8,6.585-.451.78.2.354h0l4.048,7.011v0L15.957,245l.007.013.049-.027V245h7.879l4.793,4.794,2.122-2.121-4.793-4.793v0L25.136,242H17.688l-3.464-6h0l2.887-5h0l.9-1.561v-1.267h0v-46.44l.857-.178,1.285-.267,3.857-.8V180h0V159h0v-24.62L23.561,134h-.008l0,0-6.542-5.49v0h0V115.9a5,5,0,1,0-6-4.9Zm3,0a2,2,0,1,1,2,2A2,2,0,0,1,14.012,111Zm-6,22v11.418a5,5,0,1,0,3-.317V133Zm0,16a2,2,0,1,1,2,2A2,2,0,0,1,8.013,149Zm-3,14a4.992,4.992,0,0,0,1.552,3.619L1.054,181.765l-.041.11h0L1,181.913l.013.006v3.192h0v23.863h0v.945l.127.351,5.872,16.136V284H7.1L1.2,300.2l-.191.524v0L1,300.763l.012,0v3.193h0v23.862h0v.946l.131.359,5.869,16.125V377h0V406.77l.039.1,5.962,16.378V450H13.1l-.089.241v0L7,466.763l.012,0V500h3V467.252L15.564,452l.448-1.231v-28l.014,0L9.926,406h.087V344.768l.014-.006-.564-1.551L9.385,343,4.013,328.242v0L3.926,328h.088V301.255L9.929,285h0l.083-.23v-58.85l.015-.006-.015-.04v-.085H9.982L3.927,209.152h.087V182.407l5.264-14.461a5.133,5.133,0,0,0,.737.054,5,5,0,1,0-5-5Zm3,0a2,2,0,1,1,2,2A2,2,0,0,1,8.013,163Zm14.978,40.477L20.776,204.7l-.023,1.682,0,.255-.013,1.013h0L20.4,234.076l-.016.029-.024,1.828.993.549h0l12.616,6.993h0l.37,28.708-11.347,6.29L20.776,279.7l-.023,1.683-.01.71-.007.558L20.323,313.7l2.944.063.43-32.291L37.189,274h0l.131-.074L37.3,272.13l-.013-.025-.354-27.45h0l-.039-2.951-2.217-1.229h0l-11.33-6.28.355-27.719,14.366-7.962-1.439-2.6ZM29.013,212a5.008,5.008,0,0,0,3,4.582v14.233l-.044.053,1.4,1.177,1.644,1.38,4,3.354V266h0v13l-.859.177h0l-1.285.268-3.857.8V306h3V282.731l.857-.178,1.285-.267,3.857-.8V281h0V260h0V235.38L41.561,235h-.008l0,0-6.542-5.49v0h0V216.9a5,5,0,1,0-6-4.9Zm3,0a2,2,0,1,1,2,2A2,2,0,0,1,32.012,212Zm6,15.815-.044.054,1.4,1.176,1.645,1.38,4,3.355V263h0v18.376h0v3.106l1.431.383,2.57.689v42.866a5,5,0,1,0,3-.317V309h0V286.356h0V283.25L51.083,283v0l-3.07-.822V263h0V232.381L47.562,232h-.007l0,0-6.542-5.489v0l-3-2.52ZM49.014,333a2,2,0,1,1,2,2A2,2,0,0,1,49.014,333Zm-27-77a5.009,5.009,0,0,0,3,4.582V269h3v-8.1a5,5,0,1,0-6-4.9Zm3,0a2,2,0,1,1,2,2A2,2,0,0,1,25.012,256Zm-8-1v19.179L13.943,275h0l-.931.249v3.106h0v4.652h0V292.1a5,5,0,1,0,3,.317V288h0V277.552l2.57-.688,1.43-.383V255Zm-5,42a2,2,0,1,1,2,2A2,2,0,0,1,12.012,297Zm26-4a5.008,5.008,0,0,0,3,4.583v17.835a5,5,0,1,0,3-.316V297.9a5,5,0,1,0-6-4.9Zm3,0a2,2,0,1,1,2,2A2,2,0,0,1,41.013,293Zm0,27a2,2,0,1,1,2,2A2,2,0,0,1,41.013,320Zm-13-10v50h3V310Zm-18,0v18.376h0v3.106l1.43.383,2.57.69V367h3V333.356h0V330.25L16.083,330v0l-3.07-.822V310Zm24,4v50h3V314Zm-17,7a5.008,5.008,0,0,0,3,4.583v36.793h0v3.106l1.431.383,2.57.689V390h3V367.356h0v-3.106L26.083,364h0l-3.07-.823V325.9a5,5,0,1,0-6-4.9Zm3,0a2,2,0,1,1,2,2A2,2,0,0,1,20.013,321Zm20,10v35.532l-6.556,11.356-.444.769V405h3V379.187L42.472,368h.006l.025-.054.51-.884-.076-.044.077-.166v-2.739h0V331Zm6,13a5.01,5.01,0,0,0,4,4.9v18.278L46.944,368v0l-.931.248v3.106h0V377h0v29.381l-5.871,16.136-.127.352v.944h0v23.863h0v3.192l-.014.006.014.036h0l.041.109,6.1,16.767,2.82-1.026-5.963-16.381V423.638h-.086L48.982,407h.031v-.086l.014-.041-.014-.006V394h0V370.554l2.57-.69,1.43-.383v-3.106h0V348.582a5,5,0,1,0-7-4.582Zm3,0a2,2,0,1,1,2,2A2,2,0,0,1,49.013,344Zm-48,3v60.77l.039.1,5.96,16.378V451H7.1l-.089.242h0L1,467.764l.013,0V500h3v-31.74l0,0v0L9.565,453l.448-1.232v-28l.014-.006L3.926,407h.088V347Zm52,30v35.533L49.105,419.3l-1.032,1.789a5,5,0,1,0,3.093.4l1.638-2.839-.018,0L55.472,414h.006l.023-.047.512-.89-.075-.044.078-.165v-2.74l0,0V377Zm-6,49a2,2,0,1,1,2,2A2,2,0,0,1,47.011,426Zm-7-49v29.381l-5.872,16.136-.128.352v.944h0v23.863h0v3.192l-.013.006.013.036h0l.041.109,6.1,16.767,2.82-1.026-5.962-16.381V423.638h-.088L42.981,407h.031v-.086l.015-.041-.015-.006V377Zm-24,0v19.417a5,5,0,1,0,3-.317V377Zm0,24a2,2,0,1,1,2,2A2,2,0,0,1,16.013,401Zm4,17.816-.043.054,1.4,1.176,1.643,1.38,4,3.356V453.1a5,5,0,1,0,3,.316V423.381l-.451-.38h-.007l0,0-6.543-5.488v0l-3-2.519Zm6,39.185a2,2,0,1,1,2,2A2,2,0,0,1,26.013,458Zm-6-29v22.633l-3.8,6.586L15.76,459l.2.354h0l4.047,7.011v0L20.957,468l.007.013.049-.027V468H28.89l10.69,10.689a5,5,0,1,0,2.121-2.12L31.014,465.88v0L30.135,465H22.688l-3.462-6h0l2.886-5,.9-1.56v-1.267h0V429Zm22,52a2,2,0,1,1,2,2A2,2,0,0,1,42.013,481Zm6-48v18.376h0v3.107l1.433.384,2.569.688V500h3V456.355l0,0v-3.106L54.084,453v0l-3.071-.823V433Zm-33,38v17.418a5,5,0,1,0,3-.318V471Zm0,22a2,2,0,1,1,2,2A2,2,0,0,1,15.012,493Zm10-14v21h3V479Zm6,4v17h3V483Zm6,5v12h3V488Zm7.5,4v8h3v-8Z" transform="translate(3.58 1304.1)"/></g><g class="q" transform="matrix(1, 0, 0, 1, 136.41, 3016.9)"><path class="b" d="M3727.015,836h-3V824h.087l-.087-.239L3718.643,809l-.321-.878-.322-.886.014,0V758h3v48.744l5.557,15.27.443,1.217V836Zm-8,0h-3V823h2.736l.265.727V836Zm-7,0h-3v-7h3v7Zm-13.437,0h-6.119l-4.467-2.476-2.216-1.228-.022-1.683,0-.255-.013-1.012-.337-26.422-.016-.029-.025-1.828.993-.55,12.616-6.994.37-28.709-11.347-6.29-2.216-1.227-.022-1.684-.009-.71-.008-.557-.413-31.048,2.945-.064.429,32.291L3702.189,763l.131.075-.023,1.794-.013.024-.354,27.45-.038,2.951-2.216,1.229-11.333,6.28.354,27.719,9.877,5.474Zm-15.564,0h-3V808.367l-3.8-6.585-.452-.78.2-.354,4.047-7.012.945-1.635.007-.014.049.028V792h7.879l4.792-4.794,2.122,2.121-4.793,4.793-.878.88h-7.448l-3.464,6,2.886,5,.9,1.561V836Zm-14,0h-3v-8.92l.127-.352,5.872-16.136V753h.088l-5.9-16.2-.191-.524-.012-.037.012,0v-28l.131-.358,5.869-16.125V630.231l.038-.1,5.962-16.378V587h.089l-.089-.24L3672,570.237l.012,0V537h3v32.747L3680.564,585l.449,1.232v28l.014,0-6.1,16.763h.087v61.232l.014.006-.564,1.552-.078.212-5.372,14.756-.088.244h.088v26.744L3674.928,752l.084.23v58.851l.015.006-.015.039v.085h-.031l-6.056,16.637h.087V836Zm30-6a5,5,0,0,1-2-9.582V806.185l-.045-.053,1.4-1.177,1.645-1.38,4-3.353V771l0-13-.859-.178-1.285-.269-3.856-.8V731h3v23.27l.857.178,1.285.268,3.857.8v46.1l-.452.378h-.007l-6.539,5.493V820.1a5,5,0,0,1-1,9.9Zm0-7a2,2,0,1,0,2,2A2,2,0,0,0,3699.013,823Zm4-9.986v-3.828l-.045-.054,1.4-1.176,1.644-1.38,4-3.354v-50.7l1.431-.384,2.569-.688V708.583a5,5,0,1,1,3,.317V753.75l-.932.248-3.069.824v49.8l-.451.38h-.008l-6.539,5.492-3,2.52Zm13-111.012a2,2,0,1,0,2,2A2,2,0,0,0,3716.014,702Zm-24,84a5,5,0,0,1-2-9.583V768h3v8.1a5,5,0,0,1-1,9.9Zm0-7a2,2,0,1,0,2,2A2,2,0,0,0,3692.013,779Zm-7,3h-3V762.822l-3.071-.823-.931-.25V744.9a5,5,0,1,1,3-.317v14.866l2.571.688,1.429.383V782Zm-6-44a2,2,0,1,0,2,2A2,2,0,0,0,3679.013,738Zm29,11a5,5,0,0,1-2-9.583V721.583a5,5,0,1,1,3,.316v17.2a5,5,0,0,1-1,9.9Zm0-7a2,2,0,1,0,2,2A2,2,0,0,0,3708.014,742Zm0-27a2,2,0,1,0,2,2A2,2,0,0,0,3708.014,715Zm-12,12h-3V677h3Zm-18,0h-3V705.52l1.43-.383,2.57-.689V670h3v33.643l0,3.106-.932.248-3.07.824V727Zm21-4V673h3v50h-3Zm-12-2a5,5,0,0,1-2-9.583v-39.9l1.431-.383,2.569-.688V647h3v22.643l0,3.106-.932.249-3.07.824V711.1a5,5,0,0,1-1,9.9Zm0-7a2,2,0,1,0,2,2A2,2,0,0,0,3687.013,714Zm18-8V670.469l-6.557-11.355-.443-.77V632h3v25.813l6.46,11.186h.006l.025.054.51.884-.077.045.078.165V706h-3Zm11-8a5,5,0,0,1-1-9.9V669.822l-3.071-.823-.932-.25v-3.105l0-5.644,0-29.382-5.871-16.136-.127-.352v-28l-.014-.006.014-.036.04-.111,6.1-16.766,2.82,1.026-5.963,16.38v26.745h-.086L3713.982,630h.031v.086l.014.041-.014.006V643l0,23.448,2.57.69,1.431.383v20.9a5,5,0,0,1-2,9.582Zm0-7a2,2,0,1,0,2,2A2,2,0,0,0,3716.013,691Zm-50-1V629.23l.038-.1,5.96-16.377V586h.089l-.089-.243L3666,569.236l.013,0V537h3v31.741l0,.006,5.55,15.251.448,1.232v28l.014.006-6.1,16.762h.088v60h-3Zm52-30V624.469l-3.909-6.768-1.033-1.789a5,5,0,1,1,3.093-.4l1.639,2.839-.018,0,2.685,4.652h.006l.022.047.513.891-.076.044.079.166v2.74l0,33.113h-3Zm-4-51a2,2,0,1,0,2,2A2,2,0,0,0,3714.013,609Zm-6,51h-3V630.619l-5.872-16.136-.128-.352v-28l-.014-.006.014-.036.04-.111,6.1-16.766,2.82,1.026-5.962,16.38v26.745h-.088L3707.981,630h.031v.086l.015.041-.015.006V660Zm-24,0h-3V640.583a5,5,0,1,1,3,.317V660Zm-1-26a2,2,0,1,0,2,2A2,2,0,0,0,3683.013,634Zm2-11.989v-3.828l-.043-.054,1.4-1.176,1.643-1.38,4-3.355V583.9a5,5,0,1,1,3-.316v30.035l-.451.38h-.007l0,0-6.544,5.489-3,2.52Zm8-45.012a2,2,0,1,0,2,2A2,2,0,0,0,3693.013,577Zm-5,31h-3V585.368l-3.8-6.586-.452-.779.2-.354,4.047-7.011.946-1.636.007-.013.049.027V569h7.877l10.69-10.688a5,5,0,1,1,2.122,2.121l-10.688,10.687-.878.88h-7.446l-3.463,6,2.885,5,.9,1.559V608Zm21-54a2,2,0,1,0,2,2A2,2,0,0,0,3709.014,554Zm7,50h-3V585.626l0-3.106,1.432-.384,2.569-.687V537h3v46.749l-.931.248-3.071.825V604Zm-33-38h-3V548.583a5,5,0,1,1,3,.318V566Zm-1-24a2,2,0,1,0,2,2A2,2,0,0,0,3682.014,542Zm11,16h-3V537h3v21Zm6-4h-3V537h3v17Zm6-5h-3V537h3v12Zm7.5-4h-3v-8h3v8Z" transform="translate(-3661.42 1267.1)"/></g><g class="p" transform="matrix(1, 0, 0, 1, 136.41, 3016.9)"><path class="b" d="M3718.013,1256.6v-141h0v-28.77l.042-.116,5.958-16.371V1043.6h.087l-.087-.24v0l-5.372-14.758-.321-.878-.322-.885.014,0V977.6h3v48.746l5.557,15.267.443,1.217v.945h0v23.865h0v3.193l.013,0-6.013,16.52-.089.241h.089v30h0v139Zm-8,0v-17.417a5,5,0,1,1,3,.316v17.1Zm0-22a2,2,0,1,0,2-2A2,2,0,0,0,3710.013,1234.6Zm-7,22v-30.77l.042-.116,5.958-16.371V1182.6h.087l-.087-.239v0l-5.372-14.757-.32-.879-.322-.885.013,0v-78.463l-.013-.006.322-.886.32-.878,5.372-14.757v0l.087-.24h-.087v-22h3v21.826h0v.945l-.437,1.2-5.563,15.285V1133.6h0v31.746l5.556,15.268.444,1.216v.945h0v23.865h0v3.193l.014,0-6.014,16.52-.089.241h.089v30Zm-20,0V1227.22l-5.872-16.135-.127-.352v-.946h0v-27.056l-.013,0,.013-.037.043-.123,3.365-9.239,2.817,1.028-3.224,8.862v26.746h-.088l6.055,16.637h.032v.088l.015.037-.015,0V1256.6Zm-6,0V1227.22l-5.872-16.135-.127-.352v-.946h0v-27.056l-.014,0,.014-.037.04-.111,6.1-16.766,2.82,1.025-5.962,16.381v26.746h-.087l6.056,16.637h.031v.088l.014.037-.014,0V1256.6Zm-6,0v-30h3v30Zm-6,0v-74.77l.043-.116,5.958-16.371V1138.6h.087l-.087-.24v0l-5.373-14.757-.32-.878-.322-.886.013-.006V1089.6h3v31.747l5.557,15.267.443,1.216v.945h0v23.865h0v3.192l.013.006-6.013,16.52-.089.241h.089v74Zm28-9V1094.226h0v-3.1l1.43-.383,2.571-.689v-15.237l-4.218-3.539a5.009,5.009,0,1,1,2.386-1.914l4.376,3.67,0,0h.006l.453.38v15.832h0v3.107l-.932.248v0l-3.07.823V1247.6Zm-4-181a2,2,0,1,0,2-2A2,2,0,0,0,3689.013,1066.6Zm-6,149v-18.374h0v-3.106l1.431-.383,2.569-.69V1180.6h3v11.643h0v3.105l-.932.248v0l-3.07.823V1215.6Zm24-60a5.009,5.009,0,0,1,3-4.582V1133.6h0v-46.231l-.014-.006.322-.886.321-.878,5.372-14.757v0l.088-.24h-.088v-28h2.736l.265.727v3.234h0v23.865h0v.945l-.437,1.2-5.563,15.285V1150.7a5,5,0,1,1-6,4.9Zm3,0a2,2,0,1,0,2-2A2,2,0,0,0,3710.013,1155.6Zm-34-10a5.007,5.007,0,0,1,3-4.582v-14.233l-.045-.053,1.4-1.177,1.644-1.38,4-3.354V1091.6h0v-13l-.859-.179h0l-1.285-.268-3.856-.8v-49.383l-3.8-6.584-.452-.781.2-.354h0l4.048-7.011v0l.945-1.632.007-.013.049.027v-.014h7.879l4.792-4.794,2.122,2.121-4.793,4.793v0l-.878.877h-7.448l-3.464,6h0l2.886,5h0l.9,1.561v1.267h0v46.439l.857.179,1.285.267,3.857.8v.482h0v21h0v24.62l-.452.378h-.008l0,0-6.542,5.491v0h0V1140.7a5,5,0,1,1-6,4.9Zm3,0a2,2,0,1,0,2-2A2,2,0,0,0,3679.012,1145.6Zm-6-22v-11.418a5,5,0,1,1,3,.317v11.1Zm0-16a2,2,0,1,0,2-2A2,2,0,0,0,3673.014,1107.6Zm-3-14a4.993,4.993,0,0,1,1.553-3.619l-5.512-15.147-.04-.11h0l-.013-.036.013-.006v-3.192h0v-23.863h0v-.945l.127-.351,5.872-16.137V972.6h.088l-5.9-16.2-.191-.524v0l-.012-.034.012,0v-3.193h0V928.779h0v-.947l.131-.359,5.869-16.125V879.6h0V849.833l.038-.1,5.962-16.378V806.6h.089l-.089-.24v0L3672,789.838l.012,0V756.6h-2.639l-3.322-9.126-.038-.1V686.6h3v60h-.088l3.64,10v0h2.447v32.747l5.551,15.253.449,1.231v28l.014,0-6.1,16.763h.087v61.232l.014.006-.564,1.551-.078.212-5.372,14.757v0l-.088.241h.088v26.744l5.915,16.255h0l.083.231v58.85l.015.006-.015.039v.085h-.031l-6.056,16.637h.087v26.745l5.263,14.462a5.179,5.179,0,0,1,.737-.054,5,5,0,1,1-5,5Zm3,0a2,2,0,1,0,2-2A2,2,0,0,0,3673.014,1093.6Zm14.978-40.476-2.216-1.229-.022-1.683,0-.254-.013-1.013h0l-.338-26.421-.016-.029-.025-1.828.993-.549h0l12.616-6.994h0l.369-28.708-11.347-6.29-2.216-1.228-.022-1.684-.009-.709-.008-.558-.413-31.048,2.945-.063.429,32.291,13.492,7.477h0l.131.073-.023,1.794-.013.024-.354,27.45h0l-.039,2.951-2.216,1.228h0l-11.331,6.28.354,27.719,14.366,7.962-1.438,2.595Zm6.021-8.526a5.008,5.008,0,0,1,3-4.582v-14.232l-.045-.053,1.4-1.177,1.644-1.38,4-3.353V990.6h0v-13l-.859-.178h0l-1.285-.268-3.856-.8V950.6h3v23.27l.857.178,1.285.268,3.857.8v.481h0v21h0v24.619l-.452.379h-.007l0,0-6.542,5.49v0h0V1039.7a5,5,0,1,1-6,4.9Zm3,0a2,2,0,1,0,2-2A2,2,0,0,0,3697.012,1044.6Zm6-15.814-.045-.054,1.4-1.176,1.645-1.379,4-3.355V993.6h0V972.122l1.431-.383,2.569-.689V928.184a5,5,0,1,1,3,.317v19.1h0v22.644h0v3.105l-.932.248v0l-3.069.822V993.6h0v30.618l-.451.38h-.007l0,0-6.542,5.489v0l-3,2.52Zm11-105.184a2,2,0,1,0,2-2A2,2,0,0,0,3714.013,923.6Zm-27,77a5.007,5.007,0,0,1,3-4.582V987.6h3v8.1a5,5,0,1,1-6,4.9Zm3,0a2,2,0,1,0,2-2A2,2,0,0,0,3690.012,1000.6Zm-8,1V982.424l-3.071-.823h0l-.932-.249v-3.106h0v-4.652h0V964.5a5,5,0,1,1,3-.317V968.6h0V979.05l2.571.688,1.429.383V1001.6Zm-5-42a2,2,0,1,0,2-2A2,2,0,0,0,3677.012,959.6Zm26,4a5.008,5.008,0,0,1,3-4.583V941.185a5,5,0,1,1,3,.316v17.2a5,5,0,1,1-6,4.9Zm3,0a2,2,0,1,0,2-2A2,2,0,0,0,3706.013,963.6Zm0-27a2,2,0,1,0,2-2A2,2,0,0,0,3706.013,936.6Zm-13,10v-50h3v50Zm-18,0V928.226h0v-3.105l1.43-.383,2.57-.69V889.6h3v33.644h0v3.105l-.932.248v0l-3.07.822V946.6Zm24-4v-50h3v50Zm-17-7a5.007,5.007,0,0,1,3-4.583V894.227h0v-3.105l1.431-.383,2.569-.689V866.6h3v22.644h0v3.105l-.932.249h0l-3.07.823V930.7a5,5,0,1,1-6,4.9Zm3,0a2,2,0,1,0,2-2A2,2,0,0,0,3685.013,935.6Zm20-10V890.07l-6.557-11.355-.443-.769V851.6h3v25.814l6.46,11.186h.006l.025.053.51.884-.077.045.078.166v2.74h0V925.6Zm6-13a5.009,5.009,0,0,1,4-4.9V889.424l-3.071-.822v0l-.932-.249v-3.105h0V879.6h0V850.221l-5.871-16.137-.127-.352v-.944h0V808.924h0v-3.192l-.014-.006.014-.036h0l.04-.109,6.1-16.767,2.82,1.026-5.963,16.381v26.745h-.086l6.055,16.637h.031v.086l.014.04-.014.006V862.6h0v23.448l2.57.689,1.431.383v3.105h0V908.02a5,5,0,1,1-7,4.582Zm3,0a2,2,0,1,0,2-2A2,2,0,0,0,3714.013,912.6Zm-48-3V848.833l.038-.1,5.96-16.378V805.6h.089l-.089-.242h0L3666,788.839l.013,0V756.6h3v31.741l0,0v0l5.55,15.251.448,1.233v28l.014.006-6.1,16.763h.088v60Zm52-30V844.07l-3.909-6.768-1.033-1.788a5,5,0,1,1,3.093-.4l1.639,2.839-.018,0,2.685,4.652h.006l.022.047.513.89-.076.044.079.166v2.741l0,0V879.6Zm-6-49a2,2,0,1,0,2-2A2,2,0,0,0,3712.011,830.6Zm-7,49V850.221l-5.872-16.137-.128-.352v-.944h0V808.924h0v-3.192l-.014-.006.014-.036h0l.04-.109,6.1-16.767,2.82,1.026-5.962,16.381v26.745h-.088l6.056,16.637h.031v.086l.015.04-.015.006V879.6Zm-24,0V860.184a5,5,0,1,1,3,.317v19.1Zm0-24a2,2,0,1,0,2-2A2,2,0,0,0,3681.013,855.6Zm4-17.816-.043-.054,1.4-1.176,1.643-1.38,4-3.355V803.5a5,5,0,1,1,3-.316v30.035l-.451.381h-.007l0,0-6.544,5.488v0l-3,2.52Zm6-39.185a2,2,0,1,0,2-2A2,2,0,0,0,3691.013,798.6Zm-6,29V804.969l-3.8-6.586-.452-.779.2-.354v0l4.047-7.011v0l.946-1.633.007-.013.049.027V788.6h7.877l10.69-10.688a5,5,0,1,1,2.122,2.12l-10.688,10.687v0l-.878.878h-7.448l-3.462,6h0l2.885,5,.9,1.559v1.267h0V827.6Zm22-52a2,2,0,1,0,2-2A2,2,0,0,0,3707.012,775.6Zm6,48V805.227h0v-3.106l1.432-.383,2.569-.688V756.6h-1.58l2.581-4.469V716.6h3v33.11l0,2.742-.08.166.077.044-.513.89-.023.048h-.006l-1.731,3h1.274v46.749l-.931.248v0l-3.071.823V823.6Zm-33-38V768.184a5,5,0,1,1,3,.318v17.1Zm0-22a2,2,0,1,0,2-2A2,2,0,0,0,3680.012,763.6Zm10,14v-21h3v21Zm6-4v-17h3v17Zm6-5v-12h-.865l3.865-10.62V716.6h3v29.867l.015.006-.015.041v.086h-.032l-3.639,10h.672v12Zm7.5-4v-8h-2.365l3.864-10.62V716.6l0-5.645,0-3.105.932-.248,3.071-.825V688.5a5,5,0,1,1,3-.319v20.9l-1.431.383-2.57.689V733.6l0,12.866.014.006-.014.041v.086h-.031l-3.639,10h2.172v8Zm4.5-81a2,2,0,1,0,2-2A2,2,0,0,0,3714.013,683.6Zm-26.605,73h-2.4v-2.013l2.4,2.011,0,0Zm-8.479,0h-3.191l-3.686-10.127-.039-.1V684.86l-5.869-16.129-.131-.359v-28l-.013,0,.013-.035.19-.527,5.9-16.2h-.088V566.008l-5.871-16.136-.128-.351V546.6h3v2.149h-.087l6.056,16.638h.031v.085l.016.04-.016.006V624.37l-.083.231-5.916,16.256V667.6h-.088l.088.242,5.373,14.759.077.211.565,1.552-.015.006V745.6h-.086l4,11v0Zm10.085,0V706.155l-2.568-.689-1.432-.383v-3.106l0-36.792a5,5,0,1,1,3,.316v37.28l3.07.822.932.25v3.106l0,21.643h0v28Zm-4-96a2,2,0,1,0,2-2A2,2,0,0,0,3685.013,660.6Zm13,93V718.257l.442-.768,6.557-11.355V670.6h3v35.854l-.078.167.077.044-.51.883-.025.054h-.006l-6.459,11.185V753.6Zm-20-13a5.008,5.008,0,0,1,3-4.582V716.6h3v19.1a5,5,0,1,1-6,4.9Zm3,0a2,2,0,1,0,2-2A2,2,0,0,0,3681.013,740.6Zm1-34h-3V672.154l-2.57-.689-1.43-.383v-3.1l0-18.376h3v19.18l3.071.82.931.252v3.105l0,22.645v11h0Zm20-3h-3v-50h3v50Zm-6-4v0l-3,0v-50h3v50Zm15-27a5,5,0,0,1,3-4.581V625.153l-2.569-.689-1.432-.382v-50.7l-4-3.354-1.645-1.38-1.4-1.175.044-.054v-3.828l3,2.52,6.543,5.492.454.383V602.6l0,19.18,3.069.821.932.251V667.7a5,5,0,1,1-6,4.9Zm3,0a2,2,0,1,0,2-2A2,2,0,0,0,3714.013,672.6Zm-11-13a5.01,5.01,0,0,1,3-4.582V637.184a5,5,0,1,1,3,.317v17.2a5,5,0,1,1-6,4.9Zm3,0a2,2,0,1,0,2-2A2,2,0,0,0,3706.013,659.6Zm0-27a2,2,0,1,0,2-2A2,2,0,0,0,3706.013,632.6Zm-17.747,20.768-2.944-.065.414-31.048.006-.557.01-.71.022-1.683,2.216-1.228,11.347-6.29-.369-28.708-12.618-6.993-.992-.55.025-1.83.017-.029.337-26.421.008-.653h2.945l-.348,27.193,11.331,6.281,2.219,1.228.039,2.951.354,27.45.013.024.022,1.795-.13.074-13.491,7.477-.431,32.291h0Zm12.744-7.768h-3V619.852l3.855-.8,1.285-.268.859-.18v-13l0-29.222-4-3.354-1.642-1.379-1.4-1.178.045-.052V556.183a5,5,0,0,1,1.91-9.58h.183a5,5,0,0,1,.907,9.9v12.606l6.543,5.494.006,0,.45.378V599.6l0,21,0,.481-3.856.8-1.285.268-.856.178V645.6Zm-4-94a2,2,0,1,0,2-2A2,2,0,0,0,3697.012,551.6Zm-23,85a5.018,5.018,0,0,1,4-4.9v-16.85l.932-.249,3.069-.823V594.6h3v21.481l-1.43.384-2.57.688v14.865a5,5,0,1,1-7,4.583Zm3,0a2,2,0,1,0,2-2A2,2,0,0,0,3677.012,636.6Zm44-18h-3V569.37l-.014,0,.323-.885.32-.879,5.372-14.758.086-.241h-.086V541.8a14.907,14.907,0,0,0,3-4.8v16.372l-.442,1.216-5.558,15.267V618.6Zm-28-10h-3v-8.417a5,5,0,1,1,3,.315v8.1h0Zm-3-13a2,2,0,1,0,2-2A2,2,0,0,0,3690.012,595.6Zm3.671-6.207-4.791-4.792h-7.879v-.015l-.05.028-.007-.014-.945-1.633-4.048-7.013-.2-.355.451-.78,3.8-6.585V546.6h3v22.437l-.9,1.559-2.888,5,3.465,6h7.448l.878.877,4.792,4.795-2.121,2.12h0Zm25.066-35.793h-2.735v-7.3a14.919,14.919,0,0,0,3-.948v7.52l-.265.726h0Zm-6.737-6h-3v-1h3v1Z" transform="translate(-2084.42 -533.5)"/></g><g class="o" transform="matrix(1, 0, 0, 1, 136.41, 3016.9)"><path class="b" d="M3751.014,634V616.468l-3.908-6.768-1.032-1.789a5,5,0,1,1,3.093-.4l1.638,2.839-.018,0,2.686,4.652h.006l.023.047.512.89-.075.044.078.165v2.74l0,0V634Zm-6-31a2,2,0,1,0,2-2A2,2,0,0,0,3745.011,603Zm-1,31V622.618l-5.871-16.136-.127-.352v-.944h0V581.323h0V578.13l-.014-.006.014-.036h0l.041-.109,6.1-16.767,2.82,1.026-5.963,16.381v26.745h-.086L3746.982,622h.031v.086l.014.041-.014.006V634Zm-6,0V622.618l-5.872-16.136-.128-.352v-.944h0V581.323h0V578.13l-.013-.006.013-.036h0l.041-.109,6.1-16.767,2.82,1.026-5.962,16.381v26.745h-.088L3740.981,622h.031v.086l.015.041-.015.006V634Zm-7,0V624h3v10Zm-17,0v-1.417a5,5,0,1,1,3,.317V634Zm0-6a2,2,0,1,0,2-2A2,2,0,0,0,3714.013,628Zm-9,6V622.231l.039-.1,5.962-16.378V579h.089l-.089-.241v0L3705,562.237l.012,0V529h3v32.747L3713.565,577l.448,1.231v28l.014,0-6.1,16.763h.087v11Zm-6,0V621.23l.039-.1,5.96-16.378V578h.089l-.089-.242h0L3699,561.236l.013,0V529h3v31.74l0,0v0l5.55,15.251.448,1.232v28l.014.006-6.1,16.762h.088v12Zm19-23.815-.043-.054,1.4-1.176,1.643-1.38,4-3.356V575.9a5,5,0,1,1,3-.316v30.035l-.451.38h-.007l0,0-6.543,5.488v0l-3,2.52Zm6-39.185a2,2,0,1,0,2-2A2,2,0,0,0,3724.014,571Zm-6,29V577.367l-3.8-6.586-.452-.779.2-.354h0l4.047-7.011v0l.946-1.633.007-.013.049.027V561h7.877l10.69-10.689a5,5,0,1,1,2.121,2.12l-10.688,10.688v0l-.878.878h-7.447l-3.462,6h0l2.886,5,.9,1.56v1.267h0V600Zm22-52a2,2,0,1,0,2-2A2,2,0,0,0,3740.013,548Zm6,48V577.626h0v-3.107l1.433-.384,2.569-.688V529h3v43.645l0,0v3.106l-.931.248v0l-3.071.823V596Zm-33-38V540.582a5,5,0,1,1,3,.318V558Zm0-22a2,2,0,1,0,2-2A2,2,0,0,0,3713.012,536Zm10,14V529h3v21Zm6-4V529h3v17Zm6-5V529h3v12Zm7.5-4v-8h3v8Z" transform="translate(-3695.42 669.1)"/></g><g class="n" transform="matrix(1, 0, 0, 1, 136.41, 3016.9)"><path class="b" d="M3751.013,1028V887h0v-28.77l.042-.116,5.958-16.37V815h.087l-.087-.24v0L3751.643,800l-.32-.879-.322-.885.013,0V749h3v48.747l5.557,15.267.443,1.216v.945h0V839.04h0v3.193l.013,0-6.014,16.52-.089.242h.089v30h0v139Zm-8,0v-17.417a5,5,0,1,1,3,.316V1028Zm0-22a2,2,0,1,0,2-2A2,2,0,0,0,3743.013,1006Zm-7,22V997.232l.042-.116,5.958-16.37V954h.087l-.087-.24v0L3736.642,939l-.32-.879-.322-.885.013,0V858.77l-.013-.006.322-.885.32-.879,5.372-14.758v0l.087-.24h-.087V820h3v21.826h0v.945l-.437,1.2-5.564,15.285V905h0v31.747l5.556,15.267.445,1.216v.945h0v23.865h0v3.193l.013,0-6.014,16.52-.089.242h.089v30Zm-20,0V998.619l-5.872-16.135-.127-.351v-.945h0V957.324h0v-3.192l-.013,0,.013-.037.043-.123,3.364-9.238,2.818,1.028-3.224,8.862v26.746h-.088L3718.982,998h.032v.088l.014.038-.014,0V1028Zm-6,0V998.619l-5.872-16.135-.127-.351v-.945h0V957.324h0v-3.192l-.013,0,.013-.037.041-.111,6.1-16.767,2.82,1.026-5.962,16.381v26.746h-.087L3712.982,998h.031v.088l.014.038-.014,0V1028Zm-6,0V998h3v30Zm-6,0v-74.77l.042-.116,5.958-16.37V910h.087l-.087-.24v0L3698.642,895l-.32-.879-.322-.885.013-.006V861h3v31.747l5.557,15.267.444,1.216v.945h0v23.865h0v3.192l.013.006-6.014,16.52-.089.242h.089v74Zm28-9V865.625h0v-3.1l1.43-.383,2.57-.69V846.211l-4.217-3.539a5.007,5.007,0,1,1,2.386-1.914l4.376,3.671,0,0h.006l.452.379v15.832h0v3.106l-.931.248v0l-3.07.823V1019Zm-4-181a2,2,0,1,0,2-2A2,2,0,0,0,3722.014,838Zm-6,149V968.626h0V965.52l1.43-.383,2.57-.69V952h3v11.644h0v3.106l-.931.248v0l-3.07.823V987Zm24-60a5.009,5.009,0,0,1,3-4.582V905h0V858.77l-.013-.006.322-.885.32-.879,5.372-14.758v0l.088-.24h-.088V814h2.736l.265.727v3.234h0v23.865h0v.945l-.437,1.2-5.564,15.285V922.1a5,5,0,1,1-6,4.9Zm3,0a2,2,0,1,0,2-2A2,2,0,0,0,3743.013,927Zm-34-10a5.008,5.008,0,0,1,3-4.582V902.012h0v-3.827l-.044-.053,1.4-1.177,1.644-1.38,4-3.355V863h0V850l-.859-.179h0l-1.285-.267-3.857-.8V799.368l-3.8-6.585-.451-.78.2-.354h0l4.048-7.011v0l.945-1.633.007-.013.049.027V783h7.879l4.793-4.794,2.122,2.121-4.793,4.793v0l-.878.878h-7.447l-3.464,6h0l2.887,5h0l.9,1.561v1.267h0v46.44l.857.178,1.285.267,3.857.8V848h0v21h0v24.62l-.451.378h-.008l0,0-6.542,5.49v0h0V912.1a5,5,0,1,1-6,4.9Zm3,0a2,2,0,1,0,2-2A2,2,0,0,0,3712.012,917Zm-6-22V883.583a5,5,0,1,1,3,.317V895Zm0-16a2,2,0,1,0,2-2A2,2,0,0,0,3706.014,879Zm-3-14a4.992,4.992,0,0,1,1.552-3.619l-5.512-15.147-.041-.11h0l-.013-.036.013-.006V842.89h0V819.026h0v-.945l.127-.351,5.872-16.136V744h.088l-5.9-16.2-.191-.524v0l-.012-.034.012,0V724.04h0V700.177h0v-.946l.131-.359,5.869-16.125V621.231l.038-.1,5.961-16.378V578h.089l-.089-.241v0L3705,561.238l.013,0V528h3v32.746L3713.565,576l.449,1.231v28l.013,0-6.1,16.763h.087v61.232l.014.006-.564,1.551-.077.212-5.372,14.757v0l-.088.242h.088v26.744L3707.929,743h0l.083.23v58.85l.015.006-.015.04v.085h-.031l-6.055,16.637h.087v26.745l5.264,14.461a5.133,5.133,0,0,1,.737-.054,5,5,0,1,1-5,5Zm3,0a2,2,0,1,0,2-2A2,2,0,0,0,3706.014,865Zm14.978-40.477-2.216-1.229-.023-1.682,0-.255-.013-1.013h0l-.338-26.421-.016-.029-.024-1.828.993-.549h0l12.616-6.993h0l.37-28.708-11.347-6.29-2.216-1.228-.023-1.683-.01-.71-.007-.558-.413-31.049,2.944-.063.43,32.291L3735.189,754h0l.131.074-.024,1.794-.013.025-.354,27.45h0l-.039,2.951-2.217,1.229h0l-11.33,6.28.355,27.719,14.366,7.962-1.439,2.6Zm6.021-8.525a5.008,5.008,0,0,1,3-4.582V797.185l-.044-.053,1.4-1.177,1.644-1.38,4-3.354V762h0V749l-.859-.177h0l-1.285-.268-3.857-.8V722h3V745.27l.857.178,1.285.267,3.857.8V747h0v21h0V792.62l-.451.378h-.008l0,0-6.542,5.49v0h0V811.1a5,5,0,1,1-6,4.9Zm3,0a2,2,0,1,0,2-2A2,2,0,0,0,3730.012,816Zm6-15.815-.044-.054,1.4-1.176,1.645-1.38,4-3.355V765h0V746.625h0v-3.106l1.431-.383,2.57-.689V699.583a5,5,0,1,1,3,.317V719h0v22.644h0v3.106l-.931.248v0l-3.07.822V765h0V795.62l-.451.379h-.007l0,0-6.542,5.489v0l-3,2.52Zm11-105.184a2,2,0,1,0,2-2A2,2,0,0,0,3747.014,695Zm-27,77a5.009,5.009,0,0,1,3-4.582V759h3v8.1a5,5,0,1,1-6,4.9Zm3,0a2,2,0,1,0,2-2A2,2,0,0,0,3723.012,772Zm-8,1V753.823l-3.071-.823h0l-.931-.249v-3.106h0v-4.652h0V735.9a5,5,0,1,1,3-.317V740h0v10.448l2.57.688,1.43.383V773Zm-5-42a2,2,0,1,0,2-2A2,2,0,0,0,3710.013,731Zm26,4a5.008,5.008,0,0,1,3-4.583V712.584a5,5,0,1,1,3,.316v17.2a5,5,0,1,1-6,4.9Zm3,0a2,2,0,1,0,2-2A2,2,0,0,0,3739.014,735Zm0-27a2,2,0,1,0,2-2A2,2,0,0,0,3739.014,708Zm-13,10V668h3v50Zm-18,0V699.625h0v-3.106l1.43-.383,2.57-.69V661h3v33.644h0v3.106l-.931.248v0l-3.07.822V718Zm24-4V664h3v50Zm-17-7a5.008,5.008,0,0,1,3-4.583V665.626h0V662.52l1.431-.383,2.57-.689V638h3v22.644h0v3.106l-.931.249h0l-3.07.823V702.1a5,5,0,1,1-6,4.9Zm3,0a2,2,0,1,0,2-2A2,2,0,0,0,3718.013,707Zm20-10V661.469l-6.556-11.356-.444-.769V623h3v25.813L3740.473,660h.006l.025.054.51.884-.076.044.077.166v2.739h0V697Zm6-13a5.01,5.01,0,0,1,4-4.9V660.823l-3.071-.823v0l-.931-.248v-3.106h0V651h0V621.619l-5.873-16.136-.126-.352v-28l-.014-.007.014-.036h0l.041-.11,6.1-16.767,2.821,1.028-5.964,16.38v26.745h-.086L3746.982,621h.031v.086l.014.041-.014.006V634h0v23.448l2.57.69,1.43.383v3.106h0v17.793a5,5,0,1,1-7,4.582Zm3,0a2,2,0,1,0,2-2A2,2,0,0,0,3747.013,684Zm-48-3V621.231l.038-.1,5.961-16.378V578h.088l-.088-.241V576h2.552l.448,1.231v28l.014,0-6.1,16.763h.088v59Zm52-30V615.469l-3.907-6.768h0l-1.032-1.789a5,5,0,1,1,3.093-.4l1.638,2.839-.018,0,2.687,4.652h0l.023.047.513.89-.076.044.077.165v2.74l0,0V651Zm-6-49a2,2,0,1,0,2-2A2,2,0,0,0,3745.011,602Zm-7,49V621.619l-5.874-16.136-.126-.352v-.945h0V580.323h0v-3.191l-.013-.007.013-.036h0l.041-.11,6.1-16.767,2.82,1.028-5.962,16.38v26.745h-.087L3740.981,621h.031v.086l.016.041-.016.006V651Zm-24,0V631.583a5,5,0,1,1,3,.317V651Zm0-24a2,2,0,1,0,2-2A2,2,0,0,0,3714.014,627Zm4-17.816-.043-.054,1.4-1.176,1.644-1.38,4-3.356V574.9a5,5,0,1,1,3-.316v30.034l-.451.38h-.009l0,0-6.542,5.488v0l-3,2.519Zm6-39.185a2,2,0,1,0,2-2A2,2,0,0,0,3724.014,570Zm-6,29V576.368l-3.8-6.586-.452-.779.2-.354h0l4.048-7.011v0l.945-1.633.008-.013.049.028V560h7.877l10.69-10.689a5,5,0,1,1,2.121,2.12l-10.688,10.688v0l-.878.878h-7.448l-3.461,6h0l2.886,5,.9,1.561V599Zm22-52a2,2,0,1,0,2-2A2,2,0,0,0,3740.013,547Zm6,48V576.625h0V573.52l1.431-.384,2.571-.688V528h3v43.645h0v3.1l-.931.248h0l-3.071.823V595Zm-33-38V539.583a5,5,0,1,1,3,.318V557Zm0-22a2,2,0,1,0,2-2A2,2,0,0,0,3713.013,535Zm10,14V528h3v21Zm6-4V528h3v17Zm6-5V528h3v12Zm7.5-4v-8h3v8Z" transform="translate(2075.59 -2605.91) rotate(90)"/></g><g class="m" transform="matrix(1, 0, 0, 1, 136.41, 3016.9)"><path class="b" d="M3698.378,915.262H3698v-3h3.379L3715.5,898.14v-9.808l1.553-.724h0l14.6-6.807V874h3v9h-.623l-15.529,7.242v9.14l-.541.541h0l-14.85,14.85-.489.489Zm60.275-22.492V837h3v46h0v9.77Zm22-9.77v-7.1a5,5,0,1,1,3-.319V883Zm-1-12a2,2,0,1,0,2-2A2,2,0,0,0,3779.654,871Zm-9,12V858h3v25Zm-6,0V841h3v42Zm-14,0V852.582a5,5,0,1,1,3,.318V883Zm0-35a2,2,0,1,0,2-2A2,2,0,0,0,3750.653,848Zm-6,35V859.553l-2.569-.69-1.429-.384v-3.1h0V837h3v19.18l3.071.821v0l.932.248v3.1h0V883Zm-7,0V872.258l0,0v0l-5.869-16.125-.131-.359v-.947h0V830.961h0v-3.192l-.011,0,.011-.034v0l.19-.524,5.9-16.2h-.088V753.408l-5.872-16.136-.129-.351v-.944h0V712.112h0v-3.193l-.012-.006.012-.035h0l.041-.11,5.511-15.147a5,5,0,1,1,3.449,1.382,5.1,5.1,0,0,1-.739-.054l-5.264,14.461v26.746h-.087l6.056,16.636h.032v.086l.014.039-.014.006V811.77l-.084.229h0l-5.917,16.255V855h-.087l.087.242v0L3740.026,870l.077.212.564,1.552-.013.006V883Zm1-193a2,2,0,1,0,2-2A2,2,0,0,0,3738.653,690Zm38,170a5,5,0,0,1,3-4.581V812.552l-2.57-.688-1.432-.384v-3.1h0V790h0V760.78l-4-3.355-1.645-1.38-1.4-1.175.044-.054v-3.827l3,2.519v0L3778.2,759l0,0h.008l.45.379V790h0v19.179l3.07.822v0l.932.247v3.106h0V836h0v19.1a5,5,0,1,1-6,4.9Zm3,0a2,2,0,1,0,2-2A2,2,0,0,0,3779.655,860Zm-11-13a5.008,5.008,0,0,1,3-4.582V824.582a5,5,0,1,1,3,.318v17.2a5,5,0,1,1-6,4.9Zm3,0a2,2,0,1,0,2-2A2,2,0,0,0,3771.654,847Zm0-27a2,2,0,1,0,2-2A2,2,0,0,0,3771.654,820Zm-20.691,20.7.414-31.048.007-.558.01-.709.022-1.685,2.217-1.227,11.347-6.291-.369-28.708h0l-12.617-6.993h0l-.993-.549.024-1.828.016-.03.338-26.421h0l.013-1.013,0-.254.022-1.683,2.217-1.229,13.633-7.558,1.438,2.6-14.366,7.962-.354,27.718,11.33,6.28h0l2.217,1.229.038,2.952h0l.354,27.449.013.025.024,1.793-.131.074h0l-13.491,7.477-.43,32.291Zm12.69-7.7V807.25l3.857-.8,1.285-.268h0l.86-.177V793h0V763.78l-4-3.355-1.644-1.379-1.4-1.176.045-.053V743.583a5,5,0,1,1,3,.318v12.606h0v0L3772.2,762l0,0h.008l.452.378V787h0v21h0v.481l-3.858.805-1.285.266-.858.179V833Zm-1-94a2,2,0,1,0,2-2A2,2,0,0,0,3762.653,739Zm-23,85a5.011,5.011,0,0,1,4-4.9V805.357h0v-3.107l.931-.248h0l3.072-.823V782h3v21.481l-1.429.384-2.57.687V815h0v4.418a5,5,0,1,1-7,4.582Zm3,0a2,2,0,1,0,2-2A2,2,0,0,0,3742.653,824Zm41-18V756.768l-.013,0,.322-.885.32-.879,5.373-14.757v0l.087-.24h-.087V713.256l-5.959-16.37-.042-.116V668h0V528h3V666h0v30h-.09l.09.241,6.014,16.521-.014,0v28l-.443,1.216-5.557,15.267V806Zm-28-10v-8.418a5,5,0,1,1,3,.318V796Zm0-13a2,2,0,1,0,2-2A2,2,0,0,0,3755.653,783Zm-1.12-11h-7.879v-.014l-.049.028L3746.6,772l-.944-1.632v0l-4.049-7.011h0L3741.4,763l.451-.78,3.8-6.584V706.251l3.857-.8,1.284-.267h0l.858-.178V692h0V662.779l-4-3.354-1.645-1.38-1.4-1.175.044-.053V642.583a5,5,0,1,1,3,.316v12.607h0v0L3754.2,661l0,0h.008l.451.378V686h0v21h0v.482l-3.857.8-1.284.267-.858.178v46.439h0v1.268l-.9,1.561-2.887,5h0l3.464,6h7.448l.877.878v0l4.793,4.792-2.122,2.122Zm-9.881-134a2,2,0,1,0,2-2A2,2,0,0,0,3744.652,638Zm37,103V713h.087l-.087-.24v0L3776.282,698l-.32-.879-.322-.885.013-.006V650h0V632.583a5,5,0,1,1,3,.316v62.843l0,0v0l5.563,15.285.437,1.2v.944h0V737.04h0v3.234l-.265.726Zm-6-113a2,2,0,1,0,2-2A2,2,0,0,0,3775.653,628Zm-1,107V713h.086l-.086-.24v0L3769.281,698l-.319-.879-.322-.885.012-.006V617.767l-.012,0,.322-.884.319-.879,5.373-14.757v0l.086-.24h-.086V574.255l-5.958-16.37-.043-.116V528h3v29h-.09l.09.241,6.014,16.521-.014,0v28l-.444,1.217-5.555,15.266V650h0v45.747l5.563,15.285.436,1.2V735Zm-23-18a5,5,0,0,1,6.783-4.672l4.218-3.539V693.552l-2.57-.689-1.432-.383v-3.1h0V536h3V690.177l3.069.823v0l.931.248V710.19l-.453.379h-.006l0,0-4.376,3.671a5,5,0,1,1-9.169,2.757Zm3,0a2,2,0,1,0,2-2A2,2,0,0,0,3754.655,717Zm-24-23V661.727l.308-.848.32-.879,5.371-14.757v0l.088-.24h-.088V618.257l-5.958-16.372-.042-.116V528h3v73h-.088l.088.242,6.015,16.519-.012.006v3.193h0v23.864h0v.944l-.445,1.217-5.558,15.266V694Zm5-18a5.007,5.007,0,0,1,3-4.582V660h3v11.1a5,5,0,1,1-6,4.9Zm3,0a2,2,0,1,0,2-2A2,2,0,0,0,3738.653,676Zm-1.96-74.977-.041-.111-.012-.037.012,0v-3.192h0V573.814h0v-.945l.129-.352,5.872-16.135V528h3v28.87l.013,0-.013.038V557h-.031l-6.056,16.637h.087v26.746l5.962,16.381-2.82,1.025Zm6,.011-.043-.123-.013-.037.013,0v-3.192h0V573.814h0v-.945l.126-.352,5.873-16.135V528h3v28.87l.014,0-.014.038V557h-.031l-6.055,16.637h.088v26.746l3.225,8.863-2.818,1.027Zm9.957,1.966V590.553l-2.57-.689-1.431-.384v-3.106h0V568h3v19.179l3.071.822v0l.931.248v3.106h0V603Zm-16-46V528h3v29Zm36-8a5.009,5.009,0,0,1,3-4.582V528h3v16.1a5,5,0,1,1-6,4.9Zm3,0a2,2,0,1,0,2-2A2,2,0,0,0,3775.653,549Z" transform="translate(-2150.06 195.1)"/></g><g class="l" transform="matrix(1, 0, 0, 1, 136.41, 3016.9)"><path class="a" d="M53.013,0V141h0v28.77l.042.116,5.958,16.37V213H59.1l-.087.24v0L53.642,228l-.32.879-.322.885.013,0V279h3V230.254l5.557-15.267.443-1.216v-.945h0V188.961h0v-3.193l.013,0-6.014-16.52L55.926,169h.089V139h0V0Zm-8,0V17.417a5,5,0,1,0,3-.316V0Zm0,22a2,2,0,1,1,2,2A2,2,0,0,1,45.013,22Zm-7-22V30.769l.042.116,5.958,16.37V74H44.1l-.087.24v0L38.642,89l-.32.879L38,90.763l.013,0v78.463l-.013.006.322.885.32.879,5.372,14.758v0l.087.24h-.087v22h3V186.175h0v-.945l-.437-1.2-5.564-15.285V123h0V91.253l5.556-15.267.445-1.216v-.945h0V49.96h0V46.767l.013,0-6.014-16.52L40.926,30h.089V0Zm-20,0V29.382L12.141,45.518l-.127.351v.945h0V70.677h0V73.87l-.013,0,.013.037.043.123,3.364,9.238,2.818-1.028-3.224-8.862V46.638h-.088L20.982,30h.032v-.088l.014-.038-.014,0V0Zm-6,0V29.382L6.14,45.518l-.127.351v.945h0V70.677h0V73.87l-.013,0,.013.037.041.111,6.1,16.767,2.82-1.026L9.014,73.383V46.638H8.927L14.982,30h.031v-.088l.014-.038-.014,0V0Zm-6,0V30h3V0Zm-6,0V74.77l.042.116,5.958,16.37V118H6.1l-.087.24v0L.642,133l-.32.879L0,134.764l.013.006V167h3V135.253l5.557-15.267.444-1.216v-.945h0V93.96h0V90.768l.013-.006L3.014,74.242,2.925,74h.089V0Zm28,9V162.375h0v3.1l1.43.383,2.57.69V181.79L27.8,185.329a5.007,5.007,0,1,0,2.386,1.914l4.376-3.671,0,0h.006l.452-.379V167.357h0V164.25L34.083,164v0l-3.07-.823V9Zm-4,181a2,2,0,1,1,2,2A2,2,0,0,1,24.014,190Zm-6-149V59.375h0v3.106l1.43.383,2.57.69V76h3V64.357h0V61.251L24.083,61v0l-3.07-.823V41Zm24,60a5.009,5.009,0,0,0,3,4.582V123h0v46.231l-.013.006.322.885.32.879,5.372,14.758v0l.088.24h-.088v28H53.75l.265-.727V210.04h0V186.175h0v-.945l-.437-1.2-5.564-15.285V105.9a5,5,0,1,0-6-4.9Zm3,0a2,2,0,1,1,2,2A2,2,0,0,1,45.013,101Zm-34,10a5.008,5.008,0,0,0,3,4.582v10.406h0v3.827l-.044.053,1.4,1.177,1.644,1.38,4,3.355V165h0v13l-.859.179h0l-1.285.267-3.857.8v49.383l-3.8,6.585-.451.78.2.354h0l4.048,7.011v0L15.957,245l.007.013.049-.027V245h7.879l4.793,4.794,2.122-2.121-4.793-4.793v0L25.136,242H17.688l-3.464-6h0l2.887-5h0l.9-1.561v-1.267h0v-46.44l.857-.178,1.285-.267,3.857-.8V180h0V159h0v-24.62L23.561,134h-.008l0,0-6.542-5.49v0h0V115.9a5,5,0,1,0-6-4.9Zm3,0a2,2,0,1,1,2,2A2,2,0,0,1,14.012,111Zm-6,22v11.418a5,5,0,1,0,3-.317V133Zm0,16a2,2,0,1,1,2,2A2,2,0,0,1,8.013,149Zm-3,14a4.992,4.992,0,0,0,1.552,3.619L1.054,181.765l-.041.11h0L1,181.913l.013.006v3.192h0v23.863h0v.945l.127.351,5.872,16.136V284H7.1L1.2,300.2l-.191.524v0L1,300.763l.012,0v3.193h0v23.862h0v.946l.131.359,5.869,16.125V377h0V406.77l.039.1,5.962,16.378V450H13.1l-.089.241v0L7,466.763l.012,0V500h3V467.252L15.564,452l.448-1.231v-28l.014,0L9.926,406h.087V344.768l.014-.006-.564-1.551L9.385,343,4.013,328.242v0L3.926,328h.088V301.255L9.929,285h0l.083-.23v-58.85l.015-.006-.015-.04v-.085H9.982L3.927,209.152h.087V182.407l5.264-14.461a5.133,5.133,0,0,0,.737.054,5,5,0,1,0-5-5Zm3,0a2,2,0,1,1,2,2A2,2,0,0,1,8.013,163Zm14.978,40.477L20.776,204.7l-.023,1.682,0,.255-.013,1.013h0L20.4,234.076l-.016.029-.024,1.828.993.549h0l12.616,6.993h0l.37,28.708-11.347,6.29L20.776,279.7l-.023,1.683-.01.71-.007.558L20.323,313.7l2.944.063.43-32.291L37.189,274h0l.131-.074L37.3,272.13l-.013-.025-.354-27.45h0l-.039-2.951-2.217-1.229h0l-11.33-6.28.355-27.719,14.366-7.962-1.439-2.6ZM29.013,212a5.008,5.008,0,0,0,3,4.582v14.233l-.044.053,1.4,1.177,1.644,1.38,4,3.354V266h0v13l-.859.177h0l-1.285.268-3.857.8V306h3V282.731l.857-.178,1.285-.267,3.857-.8V281h0V260h0V235.38L41.561,235h-.008l0,0-6.542-5.49v0h0V216.9a5,5,0,1,0-6-4.9Zm3,0a2,2,0,1,1,2,2A2,2,0,0,1,32.012,212Zm6,15.815-.044.054,1.4,1.176,1.645,1.38,4,3.355V263h0v18.376h0v3.106l1.431.383,2.57.689v42.866a5,5,0,1,0,3-.317V309h0V286.356h0V283.25L51.083,283v0l-3.07-.822V263h0V232.381L47.562,232h-.007l0,0-6.542-5.489v0l-3-2.52ZM49.014,333a2,2,0,1,1,2,2A2,2,0,0,1,49.014,333Zm-27-77a5.009,5.009,0,0,0,3,4.582V269h3v-8.1a5,5,0,1,0-6-4.9Zm3,0a2,2,0,1,1,2,2A2,2,0,0,1,25.012,256Zm-8-1v19.179L13.943,275h0l-.931.249v3.106h0v4.652h0V292.1a5,5,0,1,0,3,.317V288h0V277.552l2.57-.688,1.43-.383V255Zm-5,42a2,2,0,1,1,2,2A2,2,0,0,1,12.012,297Zm26-4a5.008,5.008,0,0,0,3,4.583v17.835a5,5,0,1,0,3-.316V297.9a5,5,0,1,0-6-4.9Zm3,0a2,2,0,1,1,2,2A2,2,0,0,1,41.013,293Zm0,27a2,2,0,1,1,2,2A2,2,0,0,1,41.013,320Zm-13-10v50h3V310Zm-18,0v18.376h0v3.106l1.43.383,2.57.69V367h3V333.356h0V330.25L16.083,330v0l-3.07-.822V310Zm24,4v50h3V314Zm-17,7a5.008,5.008,0,0,0,3,4.583v36.793h0v3.106l1.431.383,2.57.689V390h3V367.356h0v-3.106L26.083,364h0l-3.07-.823V325.9a5,5,0,1,0-6-4.9Zm3,0a2,2,0,1,1,2,2A2,2,0,0,1,20.013,321Zm20,10v35.532l-6.556,11.356-.444.769V405h3V379.187L42.472,368h.006l.025-.054.51-.884-.076-.044.077-.166v-2.739h0V331Zm6,13a5.01,5.01,0,0,0,4,4.9v18.278L46.944,368v0l-.931.248v3.106h0V377h0v29.381l-5.871,16.136-.127.352v.944h0v23.863h0v3.192l-.014.006.014.036h0l.041.109,6.1,16.767,2.82-1.026-5.963-16.381V423.638h-.086L48.982,407h.031v-.086l.014-.041-.014-.006V394h0V370.554l2.57-.69,1.43-.383v-3.106h0V348.582a5,5,0,1,0-7-4.582Zm3,0a2,2,0,1,1,2,2A2,2,0,0,1,49.013,344Zm-48,3v60.77l.039.1,5.96,16.378V451H7.1l-.089.242h0L1,467.764l.013,0V500h3v-31.74l0,0v0L9.565,453l.448-1.232v-28l.014-.006L3.926,407h.088V347Zm52,30v35.533L49.105,419.3l-1.032,1.789a5,5,0,1,0,3.093.4l1.638-2.839-.018,0L55.472,414h.006l.023-.047.512-.89-.075-.044.078-.165v-2.74l0,0V377Zm-6,49a2,2,0,1,1,2,2A2,2,0,0,1,47.011,426Zm-7-49v29.381l-5.872,16.136-.128.352v.944h0v23.863h0v3.192l-.013.006.013.036h0l.041.109,6.1,16.767,2.82-1.026-5.962-16.381V423.638h-.088L42.981,407h.031v-.086l.015-.041-.015-.006V377Zm-24,0v19.417a5,5,0,1,0,3-.317V377Zm0,24a2,2,0,1,1,2,2A2,2,0,0,1,16.013,401Zm4,17.816-.043.054,1.4,1.176,1.643,1.38,4,3.356V453.1a5,5,0,1,0,3,.316V423.381l-.451-.38h-.007l0,0-6.543-5.488v0l-3-2.519Zm6,39.185a2,2,0,1,1,2,2A2,2,0,0,1,26.013,458Zm-6-29v22.633l-3.8,6.586L15.76,459l.2.354h0l4.047,7.011v0L20.957,468l.007.013.049-.027V468H28.89l10.69,10.689a5,5,0,1,0,2.121-2.12L31.014,465.88v0L30.135,465H22.688l-3.462-6h0l2.886-5,.9-1.56v-1.267h0V429Zm22,52a2,2,0,1,1,2,2A2,2,0,0,1,42.013,481Zm6-48v18.376h0v3.107l1.433.384,2.569.688V500h3V456.355l0,0v-3.106L54.084,453v0l-3.071-.823V433Zm-33,38v17.418a5,5,0,1,0,3-.318V471Zm0,22a2,2,0,1,1,2,2A2,2,0,0,1,15.012,493Zm10-14v21h3V479Zm6,4v17h3V483Zm6,5v12h3V488Zm7.5,4v8h3v-8Z" transform="translate(1048.59 1092.09) rotate(90)"/></g><g class="k" transform="matrix(1, 0, 0, 1, 136.41, 3016.9)"><path class="b" d="M3867.242,584.014l-.241-.089v.089H3760v-3H3867.77l.116.042,16.37,5.959H3911v.086l.24-.086h0L3926,581.643l.879-.32.885-.322.005.014H3977v3h-48.747l-15.267,5.557-1.217.444h-28l-.005.013Zm240.87,0,0,0H4075v-3h35.532l6.768-3.909,1.789-1.033a5,5,0,1,1,.4,3.093l-2.839,1.638,0-.018L4112,583.472v.005l-.047.023-.889.512-.044-.075-.166.078Zm13.888-7a2,2,0,1,0,2-2A2,2,0,0,0,4122,577.012Zm-95.9,3h-44.85l-.249-.931h0l-.822-3.069h-49.8l-.379-.451v-.007l0,0-5.489-6.543h0l-2.519-3h3.828l.054-.044,1.176,1.4,1.379,1.645,3.354,4h50.7l.384,1.431.688,2.57h42.866a5,5,0,1,1-.317,3Zm2.9-1a2,2,0,1,0,2-2A2,2,0,0,0,4029,579.014Zm8,0a5,5,0,0,1,9.9-1h18.278l.823-3.071h0l.248-.931h3.106v0H4075v0h29.381l16.136-5.872.353-.127h28l.005-.014.036.014h0l.11.041,16.766,6.1-1.025,2.82-16.381-5.963h-26.745v-.086L4105,576.982v.031h-.085l-.041.015-.005-.015H4092v0h-23.447l-.69,2.57-.384,1.431h-20.9a5,5,0,0,1-9.582-2Zm3,0a2,2,0,1,0,2-2A2,2,0,0,0,4040,579.013Zm111.252,4-.248-.931h0l-.823-3.071H4131v-3h18.375v0h3.106l.385,1.433.688,2.569H4198v3h-43.645l0,0Zm-243.211-1h-24.809l-1.2-.436-15.285-5.564H3803.9a5,5,0,1,1-.317-3h63.649l.005-.014.885.321.879.32,14.757,5.372h0l.24.087v-.087h28v2.736l-.727.264Zm-111.041-7a2,2,0,1,0,2-2A2,2,0,0,0,3797,575.014Zm377-3a4.967,4.967,0,0,1,.567-2.313l-10.687-10.688h0l-.877-.879v-7.445h0l-6-3.463h0l-5,2.886-1.561.9H4127v-3h22.634l6.585-3.8.779-.452.354.2h0l7.012,4.048h0l1.633.945.013.006-.028.049H4166v7.878l10.688,10.689a5,5,0,1,1-2.687,4.434Zm3,0a2,2,0,1,0,2-2A2,2,0,0,0,4177,572.014Zm-163.9,0h-17.2a5,5,0,1,1-.317-3h17.835a5,5,0,1,1-.316,3Zm2.9-1a2,2,0,1,0,2-2A2,2,0,0,0,4016,571.013Zm-27,0a2,2,0,1,0,2-2A2,2,0,0,0,3989,571.013Zm201,4.5v-3h8v3Zm-306.77-.5-1.2-.437-15.285-5.563h-77.494l-15.267,5.555-1.217.445H3760v-3h12v.086l.24-.086h0L3787,566.642l.879-.32.885-.321,0,.013h78.464l.005-.013.885.321.879.32,14.757,5.372h0l.24.086v-.086h22v3h-22.77Zm221.638-4H4075v-3h29.381l16.136-5.873.353-.128h28l.005-.014.036.014h0l.11.04,16.766,6.1-1.025,2.819-16.381-5.962h-26.745v-.087L4105,570.981v.032h-.085l-.041.015Zm-39.851-.076-.166.077H4029v-3h35.531l11.356-6.556.769-.444H4103v3h-25.813L4066,570.472v.006l-.054.025-.885.51ZM3958,570.014v0H3933.38l-.378-.451v-.007l0,0-5.49-6.543H3914.9a5,5,0,1,1-.317-3h14.234l.053-.044,1.177,1.4,1.379,1.644,3.354,4H3964v0h13l.177-.859h0l.268-1.285.8-3.857H4004v3H3980.73l-.178.857-.268,1.285-.8,3.856H3979v0Zm-50-8a2,2,0,1,0,2-2A2,2,0,0,0,3908,562.014Zm278,6v-3h12v3Zm-292.08-3.388,7.557-13.633,1.229-2.216,1.682-.022.255,0,1.012-.013h0l26.42-.337.03-.016,1.828-.025.549.994h0l6.994,12.616h0l28.708.37,6.291-11.348,1.227-2.216,1.684-.022.709-.009.558-.007,31.048-.414.063,2.945-32.291.43L3972,565.189h0l-.074.131-1.794-.023-.024-.014-27.449-.354h0l-2.951-.039-1.229-2.217h0l-6.28-11.331-27.719.355-7.962,14.366Zm118.081.39v-3h50v3Zm-149.75-2-.248-.931h0l-.823-3.07H3760v-3H3863.48l.384,1.431.69,2.57h15.237l3.539-4.217a4.948,4.948,0,0,1-.329-1.782,5,5,0,1,1,2.242,4.168l-3.671,4.375,0,0v.005l-.38.452h-15.832v0Zm23.749-9a2,2,0,1,0,2-2A2,2,0,0,0,3886,554.014Zm295,8v-3h17v3Zm-29.585-4h-30.035l-.38-.451v-.006h0l-5.489-6.543h0l-2.519-3h3.828l.054-.044,1.176,1.4,1.379,1.644,3.356,4H4151.1a5,5,0,1,1,.316,3Zm2.584-2a2,2,0,1,0,2-2A2,2,0,0,0,4154,556.013Zm-205-1a5,5,0,0,1,9.583-2H3967v3h-8.1a5,5,0,0,1-9.9-1Zm3,0a2,2,0,1,0,2-2A2,2,0,0,0,3952,555.013Zm56,4v-3h50v3Zm-67.12-5h0l-.878-.879v-7.448l-6-3.464h0l-5,2.887h0l-1.561.9h-47.708l-.179.857-.267,1.285-.8,3.856H3878v0h-21v0h-24.62l-.378-.451v-.007l0,0-5.49-6.543H3813.9a5,5,0,1,1-.317-3h14.234l.053-.044,1.177,1.4,1.379,1.644,3.354,4H3863v0h13l.179-.859h0l.268-1.285.8-3.857h49.383l6.585-3.8.781-.452.354.205h0l7.01,4.048h0l1.633.945.013.007-.027.05H3943v7.878l4.794,4.793-2.122,2.122Zm-133.879-10a2,2,0,1,0,2-2A2,2,0,0,0,3807,544.014Zm370,12v-3h21v3Zm-114.75-1-.249-.931h0l-.823-3.069H4023.9a5,5,0,1,1-.317-3h39.9l.384,1.431.689,2.57H4088v3H4062.25Zm-45.251-5a2,2,0,1,0,2-2A2,2,0,0,0,4017,550.013Zm-257,3v-7h.481l.384,1.43.689,2.57H3774v3h-14Zm334.1-6H4075v-3h19.417a5,5,0,1,1-.317,3Zm2.9-1a2,2,0,1,0,2-2A2,2,0,0,0,4097,546.014Zm89.1,0H4169v-3h17.417a5,5,0,1,1-.318,3Zm2.9-1a2,2,0,1,0,2-2A2,2,0,0,0,4189,545.014Zm-215,3h-21v-3h19.179l.823-3.071h0l.249-.931h16.85a5,5,0,1,1,.317,3h-14.866l-.688,2.57-.383,1.43Zm19-6a2,2,0,1,0,2-2A2,2,0,0,0,3993,542.013Zm-221.616,1H3760v-3h11.872l0-.014.037.014.123.043,9.238,3.364-1.027,2.818Zm256.866,2-.248-.931h0l-.822-3.07H4008v-3h21.48l.384,1.431.69,2.57H4065v3h-33.643v0ZM4104,537.926v.086h-61.233l-.005.015-1.552-.565-.212-.077-14.757-5.373h0l-.242-.087v.087h-26.743L3983,537.929h0l-.23.083h-58.851l-.005.015-.04-.015h-.084v-.032l-16.638-6.055v.086h-26.745l-14.461,5.264a5.186,5.186,0,0,1,.054.737,5,5,0,1,1-1.381-3.448l15.147-5.511.111-.041.037-.013.005.013h28l.351.128,16.136,5.872H3982v.087l16.2-5.9.523-.191h0l.035-.012,0,.012h28l.358.132,16.126,5.868h61.515l.105.039,16.377,5.961H4148v.09l.24-.09h0L4164.764,535l0,.013H4198v3h-32.747L4150,543.564l-1.231.449h-28l-.005.014Zm-245,.087a2,2,0,1,0,2-2A2,2,0,0,0,3859,538.014Zm-16.9,1H3831v-3h11.418a5,5,0,1,1-.317,3Zm2.9-1a2,2,0,1,0,2-2A2,2,0,0,0,3845,538.014Zm-73.616-1H3760v-3h11.872l0-.013.037.013.112.041,16.766,6.1-1.025,2.819ZM4105,531.925v.087h-60v-3h60.77l.1.039,16.379,5.96H4149v.089l.243-.089h0L4165.764,529l0,.013H4198v3h-31.741l0,0h0L4151,537.565l-1.233.448h-28l0,.015Zm-332.759-.911-.242-.089v.089h-12v-3h12.773l.114.041,16.369,5.958H3816v.087l.239-.087h0L3831,528.641l.879-.319.844-.308H3865v3h-31.747l-15.267,5.557-1.216.444h-28l-.005.013Z" transform="translate(-3649.41 564.09)"/></g><g class="j" transform="matrix(1, 0, 0, 1, 136.41, 3016.9)"><path class="b" d="M8.738,72.761H0v-3H7.655l8.351-7.007.59-.5.116-.041,16.37-5.959L53.569,39.067l.056.067.128-.221h0l7.852-13.6.467-.809.472-.816.013.007.176-.149L88.78,1.689,90.793,0V3.917l-.085.071L64.859,25.678l0,0L56.733,39.75l-.646,1.12-.724.608L37.082,56.818h0l-2.446,2.052.005.014L18.12,64.9l-.242.088.057.067-5.613,4.71h0l-3.575,3h0l-.005,0Z" transform="translate(1542.8 1074.34)"/></g><g class="i" transform="matrix(1, 0, 0, 1, 136.41, 3016.9)"><path class="b" d="M3705.96,600.738H3698v-3h7.017l48.622-40.8V539h3v19h-.244l.268.32L3706.87,600.1l-.062-.074-.807.678v.034Z" transform="translate(-2153.2 538.86)"/></g><g class="h" transform="matrix(1, 0, 0, 1, 136.41, 3016.9)"><path class="b" d="M3703,572.9h-5v-3h4.262l44.391-37.248V528h3v6h0v.02l-.771.646.018.022-43.893,36.83-1.386,1.386Z" transform="translate(-2154.06 559.2)"/></g><g class="g" transform="matrix(1, 0, 0, 1, 136.41, 3016.9)"><path class="b" d="M3699.379,576.9H3698v-3h4.454l39.2-32.892V528h3v14h0v.411l-3,2.517h0l-37.419,31.4-.017-.02-.6.6Z" transform="translate(-2154.06 543.2)"/></g><g class="f" transform="matrix(1, 0, 0, 1, 136.41, 3016.9)"><path class="b" d="M.389,41.4,0,41.008l2.121-2.121,7.861-7.861V16.88l1.462-.835h0L39.5,0l1.483,2.544L12.947,18.575V32.3l-1.7,1.7L5.783,39.468,3.854,41.4Z" transform="translate(1541.81 1060.7)"/></g><g class="e" transform="matrix(1, 0, 0, 1, 136.41, 3016.9)"><path class="a" d="M3704.092,634.64v-25h.481l32.044-38.188,9.1-10.851-.1-.1,1.153-1.153.006-.006,0,0,1.143-1.363.119.1,5.356-5.356,9.876-9.876h0l3-3h38.959v3h-37.716l-18.533,18.533-41.893,49.927V634.64Zm-6.087,0V609.9l0,0,0-.006h0l3-3.575h0l4.709-5.613.067.056.089-.242h0l5.736-15.757h0l.265-.727v0l.012-.034.013,0,2.051-2.446h0l15.34-18.28h0l.607-.724,1.135-.655h0l14.056-8.115,0,0L3764.2,531l.857-1.021,1.076-1.283.584-.7h38.523v3h-37v-.147l-21.021,25.05-.149.178.007.012-1.353.782-.271.157-13.6,7.852h0l-.222.128.067.056-17.191,20.487-5.917,16.256h0l-.084.23-.495.589L3701,610.984v23.655Zm36.087-.138v-6.173l-.087-.086v-3.466l.2-.2,17.678-17.678.219-.221h13.729l14.379-25.171.011.006.295-.516h24.729v3h-23.067l-13.188,23.086v0l-.495.863-.134.236-.836,1.461h-14.147l-16.284,16.284V634.5Zm-12,0V614.878l2.833-2.833,55.292-65.894.013.011.265-.316h24.738v3h-23.362l-56.781,67.669V634.5Zm6-.563V615.878l.245-.244-.176-.176,21.92-21.92.541-.54h9.14l7.523-16.135,2.719,1.268-7.608,16.313-.724,1.553h-9.811l-20.77,20.771v17.165ZM3742.242,630v-3h8.521l7.523-16.135,2.719,1.268L3754.072,627h0l-1.4,3h-10.43ZM3713,628.5v-16h0v-.623l1.381-1.38,36.834-43.9.021.017.646-.771h4.838l.036-.076,5.833-12.508,2.719,1.268-5.917,12.688-.724,1.552h-.766v.076h-4.655l-37.247,44.391V628.5Zm81.188-61.564h-10.2a5,5,0,1,1-.317-3h10.835a5,5,0,1,1-.317,3Zm2.9-1a2,2,0,1,0,2-2A2,2,0,0,0,3797.093,565.935Zm-20,0a2,2,0,1,0,2-2A2,2,0,0,0,3777.094,565.935Zm-6.86-29.089v-3h35v3Z" transform="translate(-3694.5 564.17)"/></g><g class="d" transform="matrix(1, 0, 0, 1, 136.41, 3016.9)"><path class="c" d="M3727,626.891v-2.749l0,.006v2.74ZM3726,559h-3V537h3v22Zm-7,0h-9.119l.689-.689A5,5,0,1,1,3720,556a4.949,4.949,0,0,1-1,3Zm-4-5a2,2,0,1,0,2,2A2,2,0,0,0,3715,554Zm-26,5h-3V548.583a5,5,0,1,1,3,.318V559Zm-1-17a2,2,0,1,0,2,2A2,2,0,0,0,3688,542Zm-7,17h-3V537h3v22Zm-6,0h-3V537h3v22Zm24-1h-3V537h3v21Zm6-4h-3V537h3v17Zm6-5h-3V537h3v12Zm7.5-4h-3v-8h3v8Z" transform="translate(-2181.41 1544.1)"/></g></g></svg>