<svg xmlns="http://www.w3.org/2000/svg" xmlns:xlink="http://www.w3.org/1999/xlink" width="158.999" height="158.999" viewBox="0 0 158.999 158.999"><defs><style>.a{fill:none;}.b,.c{stroke:none;}.c{fill:gray;}.d{filter:url(#a);}</style><filter id="a" x="0" y="0" width="158.999" height="158.999" filterUnits="userSpaceOnUse"><feOffset dx="3" dy="3" input="SourceAlpha"/><feGaussianBlur stdDeviation="1.5" result="b"/><feFlood/><feComposite operator="in" in2="b"/><feComposite in="SourceGraphic"/></filter></defs><g class="d" transform="matrix(1, 0, 0, 1, 0, 0)"><g class="a" transform="translate(1.5 1.5)"><path class="b" d="M137.251,150H12.91l.053-.053L0,136.982V12.911L12.911,0H137.25L150,12.75V137.143l-12.8,12.8.053.053Z"/><path class="c" d="M 135.072021484375 144.9992218017578 L 144.9994201660156 135.0721282958984 L 144.9994201660156 14.82092571258545 L 135.1788787841797 5.000007152557373 L 14.98237228393555 5.000007152557373 L 5.000011920928955 14.9817419052124 L 5.000011920928955 134.9111022949219 L 15.08708667755127 144.998046875 L 135.072021484375 144.9992218017578 M 137.2507781982422 149.9992523193359 L 12.90960693359375 149.9980316162109 L 12.96270275115967 149.9447021484375 L 1.197742312797345e-05 136.982177734375 L 1.197742312797345e-05 12.91057872772217 L 12.91139316558838 7.11204893377726e-06 L 137.2500152587891 7.11204893377726e-06 L 149.9994201660156 12.74991226196289 L 149.9994201660156 137.1432495117188 L 137.1968994140625 149.9453887939453 L 137.2496032714844 149.9980621337891 L 137.2507781982422 149.9992523193359 Z"/></g></g></svg>